<svg aria-hidden="true" style="position: absolute; width: 0; height: 0; overflow: hidden;" version="1.1" xmlns="http://www.w3.org/2000/svg" xmlns:xlink="http://www.w3.org/1999/xlink">
<defs>
<symbol id="icon-play" viewBox="0 0 32 32">
<path d="M10.909 24v-15.273l14.545 7.636-14.545 7.636z"></path>
<path fill="none" stroke="#fff" stroke-linejoin="miter" stroke-linecap="butt" stroke-miterlimit="4" stroke-width="0.7273" d="M31.636 16c0 8.636-7.001 15.636-15.636 15.636s-15.636-7.001-15.636-15.636c0-8.636 7.001-15.636 15.636-15.636s15.636 7.001 15.636 15.636z"></path>
</symbol>
<symbol id="icon-Ellipse-3" viewBox="0 0 32 32">
<path d="M16 32c8.837 0 16-7.163 16-16S24.837 0 16 0 0 7.163 0 16s7.163 16 16 16z"/>
</symbol>
<symbol id="icon-Rectangle-5" viewBox="0 0 69 32">
<path d="M52.923 0H16C7.163 0 0 7.163 0 16s7.163 16 16 16h36.923c8.837 0 16-7.163 16-16s-7.163-16-16-16z" style="fill:var(--color1, #FD9222)"/>
</symbol>
</defs>
</svg>
